<svg id="Capa_1" data-name="Capa 1" xmlns="http://www.w3.org/2000/svg" viewBox="0 0 400 400"><defs><style>.cls-1{fill:#04488b;}.cls-2{fill:#fff;}</style></defs><title>Iconos</title><path class="cls-1" d="M295.71,198.36q0,50.19,0,100.39c0,7-1.73,13.07-7.62,17.43a16.79,16.79,0,0,1-10.23,3.46q-78,0-155.94,0c-9.57,0-17.8-8.95-17.76-18.24.23-43.93.16-87.86.18-131.79q0-28.63,0-57.26,0-7.55.25-15.08a17.94,17.94,0,0,1,17.45-17q78.09,0,156.19,0c9.5,0,17.52,8.16,17.52,17.86q0,50.08,0,100.16Zm-85.86,85V224.24l.7-.4,23.35,23.57,12.78-12.73-46.24-45.06-46.05,46.06,12.36,12.79,24.57-24.65V283.4Z"/><path class="cls-2" d="M209.85,283.4H191.32V223.82l-24.57,24.65-12.36-12.79,46.05-46.06,46.24,45.06L233.9,247.41l-23.35-23.57-.7.4Z"/></svg>