<svg id="Capa_1" data-name="Capa 1" xmlns="http://www.w3.org/2000/svg" viewBox="0 0 390.62 190.3"><defs><style>.cls-1{fill:#fff;stroke:#b3b3b3;stroke-miterlimit:10;stroke-width:0.25px;}.cls-2{fill:#474647;}.cls-3{fill:#04488b;}</style></defs><title>Botón_Alturas</title><path class="cls-1" d="M1.33,17c0-8.29,9.93-15,22.18-15h343.6c12.25,0,22.18,6.71,22.18,15V173.32c0,8.28-9.93,15-22.18,15H23.51c-12.25,0-22.18-6.72-22.18-15Z"/><path class="cls-2" d="M156.73,144.26h3.72l7,18.89h-3.78l-1.57-4.71h-6.94l-1.58,4.71h-3.77Zm4.46,11.6-2.6-7.8-2.61,7.8Z"/><path class="cls-2" d="M169,143.73h3.57v15a1.86,1.86,0,0,0,.32,1.29,1.15,1.15,0,0,0,.87.34,3.85,3.85,0,0,0,.88-.11,3.94,3.94,0,0,0,.8-.27l.48,2.72a6.77,6.77,0,0,1-1.68.53,9.42,9.42,0,0,1-1.73.18,3.54,3.54,0,0,1-2.59-.89A3.39,3.39,0,0,1,169,160Z"/><path class="cls-2" d="M185.68,162.46l-1.1.42a8.81,8.81,0,0,1-1.37.39,7.25,7.25,0,0,1-1.47.14,4.63,4.63,0,0,1-1.81-.34,2.87,2.87,0,0,1-1.32-1.09,3.53,3.53,0,0,1-.49-2v-7.93h-1.84v-2.74h1.84v-4.52h3.56v4.52h2.93v2.74h-2.93v6.72a1.38,1.38,0,0,0,.4,1,1.4,1.4,0,0,0,.94.31,3.41,3.41,0,0,0,1.09-.18c.35-.13.64-.23.85-.32Z"/><path class="cls-2" d="M187.41,158v-8.64H191v7.86a4,4,0,0,0,.59,2.38,2,2,0,0,0,1.73.8,3.71,3.71,0,0,0,1.37-.27,4,4,0,0,0,1.25-.82,4.93,4.93,0,0,0,1-1.38v-8.57h3.56v9.83a1.25,1.25,0,0,0,.2.79,1,1,0,0,0,.65.29v2.9l-.89.12a5.14,5.14,0,0,1-.65,0,2.54,2.54,0,0,1-1.55-.44,1.71,1.71,0,0,1-.71-1.2l-.08-1.1a6.09,6.09,0,0,1-2.39,2.12,7.21,7.21,0,0,1-3.22.72,4,4,0,0,1-3.28-1.38A6.35,6.35,0,0,1,187.41,158Z"/><path class="cls-2" d="M212.28,152.29a6.5,6.5,0,0,0-2.9.63,3.79,3.79,0,0,0-1.83,1.79v8.44H204V149.34h3.27v2.85a6.33,6.33,0,0,1,1.89-2.26,4.58,4.58,0,0,1,2.43-.91H212a1,1,0,0,1,.26,0Z"/><path class="cls-2" d="M213.24,159.08a3.87,3.87,0,0,1,.76-2.36,4.91,4.91,0,0,1,2.12-1.56,8.14,8.14,0,0,1,3.11-.55,12,12,0,0,1,1.78.13,6,6,0,0,1,1.57.43v-.74a2.58,2.58,0,0,0-.78-2,3.4,3.4,0,0,0-2.33-.7,5.94,5.94,0,0,0-2.18.4,10.47,10.47,0,0,0-2.19,1.17L214,150.94a11.12,11.12,0,0,1,2.83-1.36,10.28,10.28,0,0,1,3.05-.45,6.75,6.75,0,0,1,4.64,1.47,5.29,5.29,0,0,1,1.67,4.19v4.38a1.19,1.19,0,0,0,.2.79,1,1,0,0,0,.65.29v2.9l-.87.13a4.23,4.23,0,0,1-.65.06,2.38,2.38,0,0,1-1.61-.48,2.07,2.07,0,0,1-.68-1.17l-.08-.72a6.07,6.07,0,0,1-2.26,1.81,6.47,6.47,0,0,1-2.77.63,5.3,5.3,0,0,1-2.48-.56,4.27,4.27,0,0,1-1.73-1.55A4,4,0,0,1,213.24,159.08Zm8.68.69a4.32,4.32,0,0,0,.48-.62,1.17,1.17,0,0,0,.18-.57V157.2a7.8,7.8,0,0,0-2.79-.54,4.11,4.11,0,0,0-2.28.58,1.78,1.78,0,0,0-.89,1.54,1.87,1.87,0,0,0,.29,1,2.12,2.12,0,0,0,.86.75,2.87,2.87,0,0,0,1.33.29,4.33,4.33,0,0,0,1.57-.3A4.05,4.05,0,0,0,221.92,159.77Z"/><path class="cls-2" d="M234.61,163.41a10,10,0,0,1-3.41-.58,7.69,7.69,0,0,1-2.79-1.73l1.28-2.31a9.24,9.24,0,0,0,2.46,1.48,6.26,6.26,0,0,0,2.32.48,3.45,3.45,0,0,0,1.67-.35,1.18,1.18,0,0,0,.62-1.08.94.94,0,0,0-.34-.78,3.33,3.33,0,0,0-1-.48l-1.58-.48a22.81,22.81,0,0,1-2.58-1,3.68,3.68,0,0,1-1.56-1.19,3.07,3.07,0,0,1-.52-1.85,4,4,0,0,1,.7-2.35,4.65,4.65,0,0,1,2-1.54,7.39,7.39,0,0,1,3-.55,8.51,8.51,0,0,1,2.82.46,6.6,6.6,0,0,1,2.42,1.51l-1.43,2.26a8.39,8.39,0,0,0-2-1.21,5.09,5.09,0,0,0-1.94-.39,4,4,0,0,0-1,.13,1.81,1.81,0,0,0-.8.43,1.17,1.17,0,0,0-.3.86,1,1,0,0,0,.28.77,2.29,2.29,0,0,0,.85.48c.38.14.84.3,1.39.47a24.35,24.35,0,0,1,2.84,1,4.45,4.45,0,0,1,1.74,1.22,3.05,3.05,0,0,1,.59,2,3.79,3.79,0,0,1-1.52,3.19A6.56,6.56,0,0,1,234.61,163.41Z"/><polygon class="cls-3" points="160.9 79.9 163.02 82.02 174.71 70.33 174.75 110.38 177.75 110.37 177.71 70.27 189.46 81.73 191.56 79.58 176.19 64.6 160.9 79.9"/><polygon class="cls-3" points="227.61 95.36 215.86 106.82 215.9 66.71 212.9 66.71 212.86 106.76 201.17 95.07 199.05 97.19 214.34 112.48 229.7 97.51 227.61 95.36"/></svg>