<svg id="Capa_1" data-name="Capa 1" xmlns="http://www.w3.org/2000/svg" xmlns:xlink="http://www.w3.org/1999/xlink" viewBox="0 0 224 69.31"><defs><style>.cls-1{fill:none;}.cls-2{fill:#fff;}.cls-3{clip-path:url(#clip-path);}.cls-4{fill:#b3b3b2;}.cls-5{fill:#474647;}.cls-6{fill:#034889;}</style><clipPath id="clip-path"><rect class="cls-1" x="0.95" y="2.61" width="222.1" height="64.1" rx="13.38"/></clipPath></defs><title>Botenes_1</title><rect class="cls-2" x="0.95" y="2.61" width="222.1" height="64.1" rx="13.38"/><rect class="cls-2" x="0.95" y="2.61" width="222.1" height="64.1" rx="13.38"/><g class="cls-3"><path class="cls-4" d="M14.33,2.43A13.56,13.56,0,0,0,.77,16h.36a13.2,13.2,0,0,1,13.2-13.2Zm195.34.36A13.2,13.2,0,0,1,222.87,16h.36A13.56,13.56,0,0,0,209.67,2.43Zm13.2,50.54a13.2,13.2,0,0,1-13.2,13.2v.35a13.56,13.56,0,0,0,13.56-13.55ZM14.33,66.53a13.2,13.2,0,0,1-13.2-13.2H.77A13.56,13.56,0,0,0,14.33,66.88ZM1.13,53.33V16H.77V53.33Zm208.54,13.2H14.33v.35H209.67ZM222.87,16V53.33h.36V16ZM14.33,2.79H209.67V2.43H14.33Z"/></g><path class="cls-5" d="M168.94,40h-2.39V34.73a2.73,2.73,0,0,0-.39-1.64,1.27,1.27,0,0,0-1.09-.52,2.13,2.13,0,0,0-1,.25,3,3,0,0,0-.87.69,2.69,2.69,0,0,0-.57,1V40h-2.39V30.62h2.15v1.73a3.53,3.53,0,0,1,.91-1,3.8,3.8,0,0,1,1.27-.64,4.9,4.9,0,0,1,1.53-.24,2.86,2.86,0,0,1,1.43.32,2.11,2.11,0,0,1,.86.84,3.44,3.44,0,0,1,.41,1.18,7.5,7.5,0,0,1,.12,1.34ZM154.81,29.54l-1.54-.47,1-2.12h2.23Zm-3.23,5.78a3.3,3.3,0,0,0,.32,1.46,2.59,2.59,0,0,0,.87,1,2.25,2.25,0,0,0,1.25.36,2.21,2.21,0,0,0,1.23-.36,2.67,2.67,0,0,0,.88-1,3.17,3.17,0,0,0,.34-1.46,3.13,3.13,0,0,0-.34-1.45,2.53,2.53,0,0,0-.88-1A2.29,2.29,0,0,0,154,32.5a2.19,2.19,0,0,0-1.25.37,2.5,2.5,0,0,0-.87,1A3.19,3.19,0,0,0,151.58,35.32ZM154,40.15a5.35,5.35,0,0,1-2.05-.38,4.48,4.48,0,0,1-1.55-1.07,4.59,4.59,0,0,1-1-1.55,4.92,4.92,0,0,1-.34-1.83,5,5,0,0,1,.34-1.86,4.69,4.69,0,0,1,1-1.55A4.43,4.43,0,0,1,152,30.86a5,5,0,0,1,2.05-.4,4.92,4.92,0,0,1,2,.4,4.53,4.53,0,0,1,1.55,1.05,4.38,4.38,0,0,1,1,1.55,5,5,0,0,1,.34,1.86,4.92,4.92,0,0,1-.34,1.83,4.3,4.3,0,0,1-1,1.55,4.35,4.35,0,0,1-1.54,1.07A5.31,5.31,0,0,1,154,40.15Zm-8.59-10.83V27h2.39v2.37Zm0,10.65V30.62h2.39V40Zm-5.45.18a5.31,5.31,0,0,1-2-.38,4.52,4.52,0,0,1-1.56-1.07,5,5,0,0,1-1-1.57,5.16,5.16,0,0,1,.25-4.24,4.54,4.54,0,0,1,1.71-1.77,5,5,0,0,1,2.62-.66,4.9,4.9,0,0,1,2.6.66,4.23,4.23,0,0,1,1.63,1.73l-2.34.72a2,2,0,0,0-.8-.79,2.18,2.18,0,0,0-1.11-.28,2.31,2.31,0,0,0-2.12,1.33,3.25,3.25,0,0,0-.32,1.47,3.3,3.3,0,0,0,.32,1.46,2.79,2.79,0,0,0,.89,1,2.21,2.21,0,0,0,1.23.36,2.51,2.51,0,0,0,1.5-.54,1.72,1.72,0,0,0,.45-.57l2.33.71a3.75,3.75,0,0,1-.94,1.25,4.69,4.69,0,0,1-1.45.88A5.32,5.32,0,0,1,140,40.15Zm-9.16-2.46a2.39,2.39,0,0,0,.32-.43.72.72,0,0,0,.13-.39v-.95a5.43,5.43,0,0,0-1.87-.37,2.66,2.66,0,0,0-1.54.41,1.21,1.21,0,0,0-.59,1,1.31,1.31,0,0,0,.2.68,1.52,1.52,0,0,0,.57.52,1.91,1.91,0,0,0,.89.19,2.91,2.91,0,0,0,1-.19A2.81,2.81,0,0,0,130.82,37.69ZM125,37.21a2.56,2.56,0,0,1,.5-1.59,3.23,3.23,0,0,1,1.42-1.07,5.48,5.48,0,0,1,2.09-.38,8.28,8.28,0,0,1,1.2.09,4.21,4.21,0,0,1,1.05.29v-.5a1.73,1.73,0,0,0-.54-1.37,2.15,2.15,0,0,0-1.55-.49,4,4,0,0,0-1.46.27,7.31,7.31,0,0,0-1.46.79l-.77-1.57a7.44,7.44,0,0,1,1.89-.91,6.65,6.65,0,0,1,2.05-.31,4.52,4.52,0,0,1,3.11,1,3.66,3.66,0,0,1,1.12,2.86v3a.9.9,0,0,0,.12.53.73.73,0,0,0,.45.2V40l-.59.09a4,4,0,0,1-.43,0,1.57,1.57,0,0,1-1.08-.33,1.35,1.35,0,0,1-.45-.78l-.05-.48a4.09,4.09,0,0,1-1.52,1.21,4.28,4.28,0,0,1-1.86.43,3.69,3.69,0,0,1-1.67-.38,3,3,0,0,1-1.16-1.05A2.81,2.81,0,0,1,125,37.21Zm-5.94.91a2.36,2.36,0,0,0,.75-.13,2.58,2.58,0,0,0,.66-.34,2.84,2.84,0,0,0,.54-.5,2.67,2.67,0,0,0,.35-.6V34.32a2.93,2.93,0,0,0-.6-1,2.59,2.59,0,0,0-.86-.62,2.11,2.11,0,0,0-1-.23,2.08,2.08,0,0,0-1,.23,2.19,2.19,0,0,0-.77.66,3.19,3.19,0,0,0-.5.93,3.6,3.6,0,0,0-.16,1,2.91,2.91,0,0,0,.2,1.07,2.94,2.94,0,0,0,.53.87,2.76,2.76,0,0,0,.82.59A2.56,2.56,0,0,0,119.07,38.12Zm-.8,1.9a4,4,0,0,1-1.71-.35,4.11,4.11,0,0,1-1.34-1,4.79,4.79,0,0,1-.86-1.51,5.71,5.71,0,0,1,0-3.71,4.79,4.79,0,0,1,.89-1.54,4,4,0,0,1,1.38-1,4.09,4.09,0,0,1,1.76-.38,3.63,3.63,0,0,1,1.91.5,4.12,4.12,0,0,1,1.36,1.3V30.62h2.08v8.91a4,4,0,0,1-.68,2.37,4.14,4.14,0,0,1-1.83,1.51,6.38,6.38,0,0,1-2.68.54,5.72,5.72,0,0,1-2.57-.52A5.08,5.08,0,0,1,114.2,42l1.3-1.26a3.79,3.79,0,0,0,1.34,1,4.15,4.15,0,0,0,1.73.38,3.29,3.29,0,0,0,1.39-.29,2.18,2.18,0,0,0,1-.85,2.58,2.58,0,0,0,.39-1.48V38.35a3.25,3.25,0,0,1-1.32,1.25A3.92,3.92,0,0,1,118.27,40Zm-12.18-5.47H111a2.64,2.64,0,0,0-.41-1.23,2.18,2.18,0,0,0-.86-.82,2.42,2.42,0,0,0-2.37,0,2.4,2.4,0,0,0-.86.82A2.88,2.88,0,0,0,106.09,34.55Zm2.45,5.6a5.33,5.33,0,0,1-2-.38A4.83,4.83,0,0,1,105,38.72a5,5,0,0,1-1-1.53,5.18,5.18,0,0,1-.34-1.84,5.12,5.12,0,0,1,.59-2.44,4.69,4.69,0,0,1,1.71-1.77,5,5,0,0,1,2.64-.68,4.9,4.9,0,0,1,2.63.68,4.39,4.39,0,0,1,1.65,1.77,4.77,4.77,0,0,1,.59,2.35c0,.14,0,.29,0,.45s0,.26,0,.35h-7.22a2.65,2.65,0,0,0,.41,1.25,2.33,2.33,0,0,0,.89.82,2.64,2.64,0,0,0,1.17.27,2.7,2.7,0,0,0,1.34-.34,1.88,1.88,0,0,0,.88-.93l2,.58a3.91,3.91,0,0,1-1,1.26,4.84,4.84,0,0,1-1.48.88A5.68,5.68,0,0,1,108.54,40.15ZM97.49,40l-3.44-9.35h2.48l2.35,7.17,2.37-7.17h2.27L100.09,40Zm-7-2.28a2.39,2.39,0,0,0,.32-.43.72.72,0,0,0,.13-.39v-.95a5.43,5.43,0,0,0-1.87-.37,2.66,2.66,0,0,0-1.54.41A1.21,1.21,0,0,0,87,37a1.31,1.31,0,0,0,.2.68,1.52,1.52,0,0,0,.57.52,1.91,1.91,0,0,0,.89.19,2.91,2.91,0,0,0,1-.19A2.81,2.81,0,0,0,90.5,37.69Zm-5.81-.48a2.56,2.56,0,0,1,.5-1.59,3.23,3.23,0,0,1,1.42-1.07,5.48,5.48,0,0,1,2.09-.38,8.28,8.28,0,0,1,1.2.09,4.21,4.21,0,0,1,1,.29v-.5a1.73,1.73,0,0,0-.54-1.37,2.15,2.15,0,0,0-1.55-.49,4,4,0,0,0-1.46.27,7.31,7.31,0,0,0-1.46.79l-.77-1.57a7.44,7.44,0,0,1,1.89-.91,6.65,6.65,0,0,1,2-.31,4.52,4.52,0,0,1,3.11,1,3.66,3.66,0,0,1,1.12,2.86v3a.9.9,0,0,0,.12.53.73.73,0,0,0,.45.2V40l-.59.09a4,4,0,0,1-.43,0,1.57,1.57,0,0,1-1.08-.33,1.35,1.35,0,0,1-.45-.78l0-.48a4.09,4.09,0,0,1-1.52,1.21,4.28,4.28,0,0,1-1.86.43,3.69,3.69,0,0,1-1.67-.38,3,3,0,0,1-1.16-1.05A2.81,2.81,0,0,1,84.69,37.21Zm-9.9-5.37V40H72.33V27.31h2l6.55,8.34V27.32H83.3V40h-2Z"/><path class="cls-6" d="M48.18,40.82a11.42,11.42,0,0,1-1,3.47.78.78,0,0,1-1,.39.8.8,0,0,1-.43-1c.3-1.05.6-2.1.91-3.15a.78.78,0,0,1,.94-.61A.79.79,0,0,1,48.18,40.82Z"/><path class="cls-6" d="M38.72,23.48a.83.83,0,0,1-.79.82.85.85,0,0,1-.82-.8.83.83,0,0,1,.8-.81A.82.82,0,0,1,38.72,23.48Z"/><path class="cls-1" d="M40.32,17.84H35.5v1.57h4.82Z"/><path class="cls-1" d="M37.23,27.17a1.17,1.17,0,0,1,1.38,0c2.52,1.6,5.07,3.18,7.6,4.77l.44.25c-.32-2.68-.63-5.26-.95-7.88H41.33c-.59,0-1-.33-1-.82s.37-.8,1-.8H45.5c-.06-.56-.12-1.06-.18-1.59H30.52c-.06.53-.12,1-.19,1.59h4.3a.79.79,0,0,1,.84.76.82.82,0,0,1-.76.85H30.13c-.32,2.64-.62,5.22-.94,7.88l.47-.27C32.18,30.34,34.71,28.77,37.23,27.17Z"/><path class="cls-1" d="M40.44,13H35.38V14.6h5.06Z"/><path class="cls-6" d="M59.67,54.56H58a11.06,11.06,0,0,1-3.67-.63,10.46,10.46,0,0,1-3-1.73,10.64,10.64,0,0,1-3,1.73,10.92,10.92,0,0,1-7.31,0,10.47,10.47,0,0,1-3-1.73,10.64,10.64,0,0,1-3,1.73,10.92,10.92,0,0,1-7.31,0,10.47,10.47,0,0,1-3-1.73,10.59,10.59,0,0,1-3,1.73,11.12,11.12,0,0,1-3.68.63H16.16V53.12h1.67A9.46,9.46,0,0,0,21,52.57a9.89,9.89,0,0,0,3-1.84l.47-.41.47.41a9.24,9.24,0,0,0,6.22,2.39,9.51,9.51,0,0,0,3.19-.55,9.89,9.89,0,0,0,3-1.84l.47-.41.47.41a9.24,9.24,0,0,0,6.22,2.39,9.51,9.51,0,0,0,3.19-.55,9.89,9.89,0,0,0,3-1.84l.47-.41.46.41a9.89,9.89,0,0,0,3,1.84,9.51,9.51,0,0,0,3.19.55h1.67Z"/><path class="cls-6" d="M59.67,50.67H58a11,11,0,0,1-3.67-.62,10.46,10.46,0,0,1-3-1.73,10.64,10.64,0,0,1-3,1.73,11.08,11.08,0,0,1-7.31,0,10.47,10.47,0,0,1-3-1.73,10.64,10.64,0,0,1-3,1.73,11.08,11.08,0,0,1-7.31,0,10.47,10.47,0,0,1-3-1.73,10.59,10.59,0,0,1-3,1.73,11.11,11.11,0,0,1-3.68.62H16.16V49.24h1.67A9.46,9.46,0,0,0,21,48.69a9.74,9.74,0,0,0,3-1.85l.47-.4.47.4a9.49,9.49,0,0,0,3.06,1.85,9.44,9.44,0,0,0,6.35,0,9.74,9.74,0,0,0,3-1.85l.47-.4.47.4a9.34,9.34,0,0,0,9.41,1.85,9.74,9.74,0,0,0,3-1.85l.47-.4.46.4a9.74,9.74,0,0,0,3,1.85,9.51,9.51,0,0,0,3.19.55h1.67Z"/><path class="cls-6" d="M26,40.6c-.17-1.33-.18-2.67-.23-4a.56.56,0,0,1,.22-.45q5.46-3.44,10.93-6.84l.19-.1V47.53h1.66V29.23a3.18,3.18,0,0,1,.32.16c3.56,2.23,7.14,4.46,10.7,6.7a.61.61,0,0,1,.3.41,24.23,24.23,0,0,1-.8,6.83,14.56,14.56,0,0,1-1.18,2.72c-.44.81-1.61,2.43-2.06,3.08-.66.94,2.53-.69,2.53-.69s.92-1.51,1.35-2.39a14.77,14.77,0,0,0,1.26-3.61A34.15,34.15,0,0,0,51.72,36a1,1,0,0,0-.49-.91L48.71,33.5a.6.6,0,0,1-.33-.5q-.75-6.33-1.52-12.65c-.08-.65-.35-.91-1-.91-1.14,0-2.28,0-3.42,0H42V19c0-1.65,0-3.31,0-5a1,1,0,0,0-.65-1.05H34.5A1,1,0,0,0,33.85,14c0,1.67,0,3.33,0,5v.45c-1.34,0-2.61,0-3.88,0-.65,0-.93.26-1,.91-.5,4.22-1,8.43-1.52,12.65a.58.58,0,0,1-.33.5l-2.48,1.55a1,1,0,0,0-.53,1c0,.93,0,1.87.09,2.8A21.76,21.76,0,0,0,25,44a20.25,20.25,0,0,0,.74,2,10.38,10.38,0,0,0,1.42,2.27c.55.63,3.77,1.42,3.15.86a13.35,13.35,0,0,1-2.7-3.13A13.16,13.16,0,0,1,26,40.6Zm9.51-26h4.82v1.57H35.5Zm0,3.25h4.82v1.57H35.5Zm-5.37,6.47h4.58a.82.82,0,0,0,.76-.85.79.79,0,0,0-.84-.76h-4.3c.07-.56.13-1.06.19-1.59h14.8c.06.53.12,1,.18,1.59H41.33c-.6,0-1,.31-1,.8s.38.81,1,.82H45.7c.32,2.62.63,5.2.95,7.88l-.44-.25c-2.53-1.59-5.08-3.17-7.6-4.77a1.17,1.17,0,0,0-1.38,0c-2.52,1.6-5,3.17-7.57,4.75l-.47.27C29.51,29.53,29.81,27,30.13,24.31Z"/></svg>